# AST/ASF file generated using VICON BodyLanguage
# -----------------------------------------------
:version 1.10
:name VICON
:units
  mass 1.0
  length 0.45
  angle deg
:documentation
   .ast/.asf automatically generated from VICON data using
   VICON BodyBuilder and BodyLanguage model FoxedUp or BRILLIANT.MOD
:root
   order TX TY TZ RX RY RZ
   axis XYZ
   position 0 0 0  
   orientation 0 0 0 
:bonedata
  begin
     id 1 
     name lhipjoint
     direction 0.78388 -0.462562 0.414208 
     length 3.01181 
     axis 0 0 0  XYZ
  end
  begin
     id 2 
     name lfemur
     direction 0.34202 -0.939693 0  
     length 6.04673  
     axis 0 0 20  XYZ
    dof rx ry rz
    limits (-160.0 20.0)
           (-70.0 70.0)
           (-60.0 70.0)
  end
  begin
     id 3 
     name ltibia
     direction 0.34202 -0.939693 0   
     length 7.211   
     axis 0 0 20   XYZ
    dof rx
    limits (-10.0 170.0)
  end
  begin
     id 4 
     name lfoot
     direction 0.121887 -0.334882 0.934344   
     length 2.13567   
     axis -90 7.62852e-016 20   XYZ
    dof rx rz
    limits (-45.0 90.0)
           (-70.0 20.0)
  end
  begin
     id 5 
     name ltoes
     direction 1.53555e-011 -4.2179e-011 1   
     length 1.05957   
     axis -90 7.62852e-016 20   XYZ
    dof rx
    limits (-90.0 20.0)
  end
  begin
     id 6 
     name rhipjoint
     direction -0.769387 -0.475875 0.426129   
     length 2.92756  
     axis 0 0 0  XYZ 
  end
  begin
     id 7 
     name rfemur
     direction -0.34202 -0.939693 0   
     length 6.35468   
     axis 0 0 -20   XYZ
    dof rx ry rz
    limits (-160.0 20.0)
           (-70.0 70.0)
           (-70.0 60.0)
  end
  begin
     id 8 
     name rtibia
     direction -0.34202 -0.939693 0   
     length 7.37886   
     axis 0 0 -20   XYZ
    dof rx
    limits (-10.0 170.0)
 end
 begin
     id 9 
     name rfoot
     direction -0.101763 -0.279592 0.954711   
     length 2.21478  
     axis -90 -7.62852e-016 -20   XYZ
    dof rx rz
    limits (-45.0 90.0)
           (-20.0 70.0)
  end
  begin
     id 10 
     name rtoes
     direction -1.53494e-011 -4.21851e-011 1   
     length 1.10506   
     axis -90 -7.62852e-016 -20   XYZ
    dof rx
    limits (-90.0 20.0)
  end
  begin
     id 11 
     name lowerback
     direction 0.00747405 0.999267 0.0375481   
     length 2.13259   
     axis 0 0 0   XYZ
    dof rx ry rz
    limits (-20.0 45.0)
           (-30.0 30.0)
           (-30.0 30.0)
  end
  begin
     id 12 
     name upperback
     direction 0.00661626 0.996177 0.0871029   
     length 2.10528   
     axis 0 0 0   XYZ
    dof rx ry rz
    limits (-20.0 45.0)
           (-30.0 30.0)
           (-30.0 30.0)
  end
  begin
     id 13 
     name thorax
     direction 0.00320659 0.997679 0.0680167   
     length 2.11338   
     axis 0 0 0   XYZ
    dof rx ry rz
    limits (-20.0 45.0)
           (-30.0 30.0)
           (-30.0 30.0)
  end
  begin
     id 14 
     name lowerneck
     direction 0.0374841 0.973033 0.227602   
     length 1.42765   
     axis 0 0 0   XYZ
    dof rx ry rz
    limits (-20.0 45.0)
           (-30.0 30.0)
           (-30.0 30.0)
  end
  begin
     id 15 
     name upperneck
     direction 0.00481585 0.989155 -0.146795   
     length 1.47593   
     axis 0 0 0   XYZ
    dof rx ry rz
    limits (-20.0 45.0)
           (-30.0 30.0)
           (-30.0 30.0)
  end
  begin
     id 16
     name head
     direction -0.00292522 0.997206 -0.0746423  
     length 1.48116  
     axis 0 0 0   XYZ
    dof rx ry rz
    limits (-20.0 45.0)
           (-30.0 30.0)
           (-30.0 30.0)
  end
  begin
     id 17 
     name lclavicle
     direction 0.951444 0.305606 0.0368784  
     length 3.01855  
     axis 0 0 0   XYZ
    dof ry rz
    limits (-20.0 10.0)
           (0.0 20.0)
  end
  begin
     id 18 
     name lhumerus
     direction 1 -4.48977e-011 2.61664e-027   
     length 5.52731   
     axis 180 -30 -90   XYZ
    dof rx ry rz
    limits (-60.0 90.0)
           (-90.0 90.0)
           (-90.0 90.0)
  end
  begin
     id 19
     name lradius
     direction 1 -4.48944e-011 8.22157e-027   
     length 3.11059   
     axis 180 -30 -90   XYZ
    dof rx
    limits (-10.0 170.0)
  end
  begin
     id 20
     name lwrist
     direction 1 -4.48976e-011 1.5779e-026   
     length 1.5553   
     axis -1.15221e-014 90 90   XYZ
    dof ry
    limits (-180.0 0.0)
 end
  begin
     id 21 
     name lhand
     direction 1 -4.49025e-011 3.1558e-026   
     length 0.419626   
     axis -2.01367e-014 90 90   XYZ
    dof rx rz
    limits (-90.0 90.0)
           (-45.0 45.0)
  end
  begin
     id 22 
     name lfingers
     direction 1 -4.4904e-011 6.31161e-026   
     length 0.338313   
     axis -4.02734e-014 90 90   XYZ
    dof rx
    limits (0.0 90.0)
  end
  begin
     id 23
     name lthumb
     direction 0.707107 -6.35004e-011 0.707107   
     length 0.485752   
     axis -90 45 2.85299e-015   XYZ
    dof rx rz
    limits (-45.0 45.0)
           (-45.0 45.0)
  end
  begin
     id 24 
     name rclavicle
     direction -0.968876 0.223791 0.105816   
     length 3.04177  
     axis 0 0 0   XYZ 
    dof ry rz
    limits (-10.0 20.0)
           (-20.0 0.0)
  end
  begin
     id 25 
     name rhumerus
     direction -1 -4.48962e-011 -1.01384e-027  
     length 5.25396   
     axis 180 30 90   XYZ
    dof rx ry rz
    limits (-90.0 60.0)
           (-90.0 90.0)
           (-90.0 90.0)
  end
  begin
     id 26 
     name rradius
     direction -1 -4.48955e-011 8.88542e-027   
     length 3.10567   
     axis 180 30 90   XYZ
    dof rx
    limits (-10.0 170.0)
  end
  begin
     id 27 
     name rwrist
     direction -1 -4.48994e-011 1.5779e-026   
     length 1.55283   
     axis -1.15221e-014 -90 -90   XYZ
    dof ry
    limits (-180.0 0.0)
  end
  begin
     id 28
     name rhand
     direction -1 -4.48891e-011 3.1558e-026   
     length 0.498676   
     axis -2.01367e-014 -90 -90   XYZ
    dof rx rz
    limits (-90.0 90.0)
           (-45.0 45.0)
  end
  begin
     id 29
     name rfingers
     direction -1 -4.48972e-011 6.31161e-026   
     length 0.402045   
     axis -4.02734e-014 -90 -90   XYZ
    dof rx
    limits (0.0 90.0)
  end
  begin
     id 30
     name rthumb
     direction -0.707107 -6.34849e-011 0.707107   
     length 0.577259   
     axis -90 -45 -2.85299e-015   XYZ
    dof rx rz
    limits (-45.0 45.0)
           (-45.0 45.0)
  end
:hierarchy
  begin
    root lhipjoint rhipjoint lowerback
    lhipjoint lfemur
    lfemur ltibia
    ltibia lfoot
    lfoot ltoes
    rhipjoint rfemur
    rfemur rtibia
    rtibia rfoot
    rfoot rtoes
    lowerback upperback
    upperback thorax
    thorax lowerneck lclavicle rclavicle
    lowerneck upperneck
    upperneck head
    lclavicle lhumerus
    lhumerus lradius
    lradius lwrist
    lwrist lhand lthumb
    lhand lfingers
    rclavicle rhumerus
    rhumerus rradius
    rradius rwrist
    rwrist rhand rthumb
    rhand rfingers
  end

#!OML:ASF H:\Pregnant\Project 1\Capture day 1\Session 1\femalepreg.ASF
:FULLY-SPECIFIED
:DEGREES
1
root 7.19709 15.7553 25.0098 21.9126 -83.7886 -4.49956
lowerback -22.7104 0.829617 -1.27992
upperback -6.83748 0.952524 -0.742615
thorax 5.16639 0.263672 0.164379
lowerneck -25.4971 1.39893 3.28096
upperneck 29.9447 -1.16793 3.97122
head 14.6789 0.362868 0.818288
rclavicle -4.96962e-017 9.14409e-015
rhumerus -4.02017 -28.5868 -39.9588
rradius 122.422
rwrist 41.7112
rhand -58.9214 74.6025
rfingers 7.12502
rthumb -31.1245 47.2248
lclavicle -4.96962e-017 9.14409e-015
lhumerus -41.2815 -12.6947 88.3636
lradius 30.2483
lwrist 40.1847
lhand -26.908 -4.55058
lfingers 7.12502
lthumb -0.331255 25.4289
rfemur -23.3552 21.8738 12.4781
rtibia 25.6806
rfoot -15.6591 -23.7325
rtoes -7.75611
lfemur 0 0 0
ltibia 0
lfoot 0 0
ltoes 0
2
root 7.19968 15.7556 25.0108 22.0735 -83.7596 -4.66395
lowerback -22.6399 0.836876 -1.22532
upperback -6.80972 0.95232 -0.734602
thorax 5.16187 0.26517 0.141437
lowerneck -25.5714 1.41136 3.23839
upperneck 29.8477 -1.14162 4.01957
head 14.6518 0.377273 0.85022
rclavicle -6.95746e-015 -1.03368e-014
rhumerus -3.98413 -29.3247 -40.168
rradius 122.748
rwrist 40.82
rhand -58.4199 74.4857
rfingers 7.12502
rthumb -30.6463 47.0174
lclavicle -6.95746e-015 -1.03368e-014
lhumerus -41.3057 -12.723 88.4189
lradius 30.4023
lwrist 40.2876
lhand -27.0305 -4.56595
lfingers 7.12502
lthumb -0.449586 25.4133
rfemur -23.3441 21.9528 12.4842
rtibia 25.6565
rfoot -15.6508 -23.8173
rtoes -7.72024
lfemur 0 0 0
ltibia 0
lfoot 0 0
ltoes 0
3
root 7.20229 15.7558 25.0119 22.0962 -83.7575 -4.69377
lowerback -22.5666 0.888622 -1.15664
upperback -6.7855 1.01227 -0.812705
thorax 5.15339 0.295434 0.0334534
lowerneck -25.6503 1.42659 3.40206
upperneck 29.7702 -1.1815 4.00114
head 14.6351 0.377596 0.806898
rclavicle -2.5345e-015 9.54166e-015
rhumerus -4.0099 -30.2532 -40.4311
rradius 123.115
rwrist 39.0554
rhand -57.7591 73.3904
rfingers 7.12502
rthumb -30.016 45.806
lclavicle -2.5345e-015 9.54166e-015
lhumerus -41.3364 -12.9219 88.4009
lradius 30.5504
lwrist 40.3983
lhand -27.0616 -4.59296
lfingers 7.12502
lthumb -0.479623 25.3862
rfemur -23.3436 21.9604 12.4819
rtibia 25.6528
rfoot -15.6178 -23.8433
rtoes -7.81027
lfemur 0 0 0
ltibia 0
lfoot 0 0
ltoes 0
4
root 7.20448 15.756 25.0126 22.0345 -83.7518 -4.63262
lowerback -22.4855 0.910642 -1.1091
upperback -6.78634 1.03423 -0.866834
thorax 5.11324 0.306693 -0.0468706
lowerneck -25.7071 1.44257 3.40317
upperneck 29.7302 -1.1897 4.08899
head 14.6312 0.387947 0.841426
rclavicle 2.21645e-014 -9.54166e-015
rhumerus -3.85523 -31.3956 -40.9928
rradius 123.447
rwrist 35.7438
rhand -58.1412 67.8564
rfingers 7.12502
rthumb -30.3806 40.3387
lclavicle 2.21645e-014 -9.54166e-015
lhumerus -41.4921 -13.3079 88.5407
lradius 30.7851
lwrist 40.8394
lhand -27.1716 -4.55668
lfingers 7.12502
lthumb -0.585832 25.4223
rfemur -23.3465 21.9247 12.4759
rtibia 25.6462
rfoot -15.6206 -23.8054
rtoes -7.76788
lfemur 0 0 0
ltibia 0
lfoot 0 0
ltoes 0
5
root 7.20669 15.7562 25.0133 22.0568 -83.7448 -4.65588
lowerback -22.4134 0.915396 -1.07106
upperback -6.77826 1.0343 -0.885554
thorax 5.08655 0.307588 -0.0892373
lowerneck -25.7698 1.47085 3.37981
upperneck 29.6862 -1.16192 4.15951
head 14.6259 0.408469 0.880114
rclavicle 2.14687e-014 -6.36111e-015
rhumerus -3.65129 -32.4572 -41.4988
rradius 123.739
rwrist 33.0153
rhand -57.9932 64.1506
rfingers 7.12502
rthumb -30.2394 36.607
lclavicle 2.14687e-014 -6.36111e-015
lhumerus -41.6282 -13.5885 88.6784
lradius 31.0076
lwrist 41.208
lhand -27.2675 -4.53472
lfingers 7.12502
lthumb -0.678438 25.4439
rfemur -23.3519 21.9137 12.4766
rtibia 25.6445
rfoot -15.6096 -23.8033
rtoes -7.78692
lfemur 0 0 0
ltibia 0
lfoot 0 0
ltoes 0
6
root 7.20874 15.7564 25.0139 22.0741 -83.7394 -4.67061
lowerback -22.346 0.905844 -1.04512
upperback -6.77553 1.01665 -0.885835
thorax 5.05594 0.299717 -0.109453
lowerneck -25.8209 1.50554 3.32242
upperneck 29.653 -1.11394 4.24104
head 14.6227 0.435175 0.933129
rclavicle -1.49089e-016 7.95139e-016
rhumerus -3.35386 -33.5528 -42.0939
rradius 124.005
rwrist 29.8871
rhand -57.8385 59.97
rfingers 7.12502
rthumb -30.0918 32.3994
lclavicle -1.49089e-016 7.95139e-016
lhumerus -41.7803 -13.8444 88.8406
lradius 31.2221
lwrist 41.5884
lhand -27.3619 -4.5072
lfingers 7.12502
lthumb -0.769594 25.4712
rfemur -23.3613 21.8973 12.476
rtibia 25.6435
rfoot -15.5958 -23.7969
rtoes -7.81718
lfemur 0 0 0
ltibia 0
lfoot 0 0
ltoes 0
7
root 7.21063 15.7567 25.0143 22.0893 -83.7337 -4.67858
lowerback -22.2853 0.881948 -1.03377
upperback -6.77785 0.981627 -0.865023
thorax 5.02256 0.283271 -0.103106
lowerneck -25.8559 1.54602 3.24419
upperneck 29.6275 -1.04583 4.31672
head 14.6188 0.466997 0.991178
rclavicle 4.47266e-016 -9.93923e-015
rhumerus -2.96742 -34.6556 -42.7623
rradius 124.244
rwrist 26.4351
rhand -57.7373 55.2886
rfingers 7.12502
rthumb -29.9952 27.7004
lclavicle 4.47266e-016 -9.93923e-015
lhumerus -41.9221 -14.0125 89.0015
lradius 31.3937
lwrist 41.9038
lhand -27.4499 -4.48514
lfingers 7.12502
lthumb -0.854614 25.4929
rfemur -23.3742 21.8704 12.4753
rtibia 25.6402
rfoot -15.5782 -23.7847
rtoes -7.86093
lfemur 0 0 0
ltibia 0
lfoot 0 0
ltoes 0
8
root 7.21237 15.7571 25.0147 22.1068 -83.7285 -4.68356
lowerback -22.2323 0.848871 -1.03381
upperback -6.78444 0.935873 -0.831553
thorax 4.98803 0.261455 -0.0793479
lowerneck -25.8785 1.59079 3.1755
upperneck 29.6087 -0.96887 4.37372
head 14.6148 0.500778 1.04162
rclavicle -3.0265e-014 1.47101e-014
rhumerus -2.51628 -35.7344 -43.4858
rradius 124.465
rwrist 22.6988
rhand -57.6266 50.5707
rfingers 7.12502
rthumb -29.8896 22.9635
lclavicle -3.0265e-014 1.47101e-014
lhumerus -42.0034 -13.9949 89.0915
lradius 31.4602
lwrist 42.0182
lhand -27.4909 -4.48478
lfingers 7.12502
lthumb -0.894199 25.4931
rfemur -23.3931 21.8497 12.4715
rtibia 25.6374
rfoot -15.5591 -23.7803
rtoes -7.9101
lfemur 0 0 0
ltibia 0
lfoot 0 0
ltoes 0
9
root 7.21396 15.7576 25.015 22.1153 -83.7235 -4.67401
lowerback -22.1853 0.820018 -1.03721
upperback -6.79657 0.89604 -0.800932
thorax 4.95059 0.242319 -0.055148
lowerneck -25.8921 1.62946 3.12567
upperneck 29.5984 -0.903966 4.41479
head 14.6124 0.529107 1.07992
rclavicle -1.45113e-014 -5.56597e-015
rhumerus -2.05314 -36.7775 -44.2234
rradius 124.703
rwrist 18.6967
rhand -57.6219 45.3709
rfingers 7.12502
rthumb -29.8851 17.7629
lclavicle -1.45113e-014 -5.56597e-015
lhumerus -42.068 -13.9543 89.1746
lradius 31.4779
lwrist 42.0682
lhand -27.5202 -4.48944
lfingers 7.12502
lthumb -0.922504 25.4883
rfemur -23.4179 21.8301 12.4636
rtibia 25.6345
rfoot -15.5393 -23.7778
rtoes -7.95985
lfemur 0 0 0
ltibia 0
lfoot 0 0
ltoes 0
10
root 7.21539 15.7582 25.0152 22.1195 -83.721 -4.65574
lowerback -22.1457 0.803156 -1.03849
upperback -6.81148 0.872039 -0.784577
thorax 4.91409 0.230695 -0.0433524
lowerneck -25.9002 1.65898 3.1163
upperneck 29.5928 -0.863229 4.43438
head 14.6113 0.548508 1.09773
rclavicle 1.3418e-015 6.75868e-015
rhumerus -1.60949 -37.7715 -44.956
rradius 124.968
rwrist 14.4219
rhand -57.7328 39.5743
rfingers 7.12502
rthumb -29.9909 11.9854
lclavicle 1.3418e-015 6.75868e-015
lhumerus -42.0937 -13.8808 89.2213
lradius 31.4272
lwrist 42.0152
lhand -27.5249 -4.50652
lfingers 7.12502
lthumb -0.927044 25.4712
rfemur -23.4479 21.824 12.45
rtibia 25.6317
rfoot -15.5232 -23.7845
rtoes -7.99073
lfemur 0 0 0
ltibia 0
lfoot 0 0
ltoes 0
11
root 7.21667 15.7587 25.0153 22.1423 -83.7193 -4.65204
lowerback -22.1133 0.79282 -1.04075
upperback -6.82901 0.856739 -0.771578
thorax 4.87839 0.223181 -0.0323131
lowerneck -25.9126 1.68198 3.1084
upperneck 29.6019 -0.832137 4.4482
head 14.6177 0.563281 1.11132
rclavicle -6.60959e-015 1.59028e-015
rhumerus -1.17674 -38.6883 -45.6674
rradius 125.273
rwrist 9.82228
rhand -57.926 33.3825
rfingers 7.12502
rthumb -30.1753 5.82707
lclavicle -6.60959e-015 1.59028e-015
lhumerus -42.1314 -13.8871 89.3075
lradius 31.376
lwrist 42.0092
lhand -27.5318 -4.51456
lfingers 7.12502
lthumb -0.93373 25.4631
rfemur -23.483 21.8253 12.4351
rtibia 25.6289
rfoot -15.5086 -23.7954
rtoes -8.01096
lfemur 0 0 0
ltibia 0
lfoot 0 0
ltoes 0
12
root 7.21777 15.7593 25.0153 22.1801 -83.7207 -4.65952
lowerback -22.088 0.794808 -1.04031
upperback -6.84931 0.857321 -0.768731
thorax 4.84347 0.223241 -0.0296194
lowerneck -25.931 1.69433 3.10531
upperneck 29.6249 -0.819728 4.46002
head 14.6319 0.570513 1.1199
rclavicle -5.71506e-015 8.74653e-015
rhumerus -0.779762 -39.5451 -46.3344
rradius 125.639
rwrist 4.82992
rhand -58.168 26.9885
rfingers 7.12502
rthumb -30.4062 -0.524494
lclavicle -5.71506e-015 8.74653e-015
lhumerus -42.1437 -13.8983 89.3828
lradius 31.2748
lwrist 41.949
lhand -27.519 -4.52191
lfingers 7.12502
lthumb -0.921354 25.4558
rfemur -23.5232 21.8359 12.417
rtibia 25.6262
rfoot -15.5022 -23.8057
rtoes -8.00467
lfemur 0 0 0
ltibia 0
lfoot 0 0
ltoes 0
